<?xml version="1.0" encoding="utf-8"?>
<!-- Generator: Adobe Illustrator 19.0.0, SVG Export Plug-In . SVG Version: 6.00 Build 0)  -->
<svg version="1.1" id="Layer_1" xmlns="http://www.w3.org/2000/svg" xmlns:xlink="http://www.w3.org/1999/xlink" x="0px" y="0px"
	 viewBox="0 0 345.2 184.8" style="enable-background:new 0 0 345.2 184.8;" xml:space="preserve">
<g>
	<path d="M138.2,184.8c-0.9-5.1-1.8-10.1-2.7-15.2c-0.2-1-0.3-2-0.4-3c-0.1-1.1-0.7-1.7-1.9-1.7c-0.4,0-0.9,0-1.3,0
		c-28.7,0-57.4,0-86,0c-1.9,0-2,0.1-2.3-1.8c-1-5.2-2.1-10.3-3.2-15.5c-0.2-1.2,0-1.4,1.2-1.5c0.2,0,0.5,0,0.7,0
		c34.8,0,69.5,0,104.3,0c2.4,0,2,0.2,2.3,1.9c0.7,4.8,1.4,9.6,2.2,14.3c0.1,0.6,0.4,1.2,0.6,1.8c0.1,0,0.3,0,0.4,0
		c0.1-0.4,0.2-0.7,0.3-1.1c0.8-5.1,1.5-10.2,2.3-15.3c1-6.2,2-12.4,3-18.6c1.1-7.2,2.2-14.4,3.3-21.6c0.9-5.6,1.7-11.1,2.6-16.7
		c0.9-5.5,1.7-11,2.6-16.6c0.9-5.7,1.7-11.5,2.7-17.2c0.7-4.2,1.6-8.4,2.3-12.6c1.2-7.6,2.4-15.2,3.6-22.8c0.3-2,0.7-4,0.9-6
		c0.1-1,0.5-1.4,1.5-1.4c5.1,0,10.2,0,15.4,0c1.3,0,1.5,0.2,1.2,1.5c-0.8,4.4-1.6,8.8-2.4,13.2c-0.7,4.1-1.4,8.3-2.1,12.4
		c-0.4,2.5-0.9,5-1.3,7.4c-0.7,4.2-1.5,8.4-2.2,12.6c-0.8,4.2-1.5,8.5-2.3,12.7c-0.7,4.2-1.5,8.3-2.2,12.5c-0.8,4.3-1.5,8.7-2.3,13
		c-0.7,4.2-1.5,8.3-2.2,12.5c-0.8,4.2-1.5,8.5-2.3,12.7c-0.7,4.2-1.5,8.3-2.2,12.5c-0.7,4.2-1.5,8.4-2.2,12.6
		c-0.8,4.3-1.5,8.7-2.3,13c-0.7,4.2-1.5,8.4-2.2,12.6c-0.5,3-0.9,6-1.3,9C155.4,184.8,146.8,184.8,138.2,184.8z"/>
	<path d="M0,55.2c0.2-0.6,0.6-1.3,0.6-1.9c0.2-4.9,1.7-9.2,5.6-12.3c2.8-2.2,6.1-3.3,9.7-3.4c4.8-0.1,9.6-0.1,14.4,0.2
		c2.9,0.2,5.3,1.6,7.1,3.9c0.4,0.5,0.9,1,1.5,1.8c0.1-0.7,0.2-1.1,0.2-1.5c0-1,0-2.1,0-3.1c0-0.8,0.3-1.3,1.2-1.3c5.5,0,11,0,16.4,0
		c0.9,0,1.3,0.5,1.2,1.4c0,1.6,0,3.2,0,4.8c0,31,0,61.9,0,92.9c0,1.1-0.4,1.5-1.5,1.5c-5.4,0-10.7,0-16.1,0c-1.1,0-1.4-0.5-1.4-1.5
		c0.1-1,0-2.1,0-3.1c0-0.4-0.1-0.7-0.1-1.5c-0.6,0.7-1,1-1.3,1.5c-2,2.8-4.9,4.3-8.1,4.5c-5.1,0.2-10.3,0.3-15.5-0.2
		c-5.6-0.5-9.9-3.4-12.2-8.8c-0.9-2.1-1.4-4.3-1.4-6.6c0-0.8-0.4-1.5-0.6-2.3C0,98.4,0,76.8,0,55.2z M39.2,87.9
		c0-9.7,0.1-19.4,0-29.2c0-3.7-1.9-6-5.8-5.9c-3.1,0-6.2,0-9.2,0c-3.3,0-4.3,0.9-4.7,4.1c-0.1,0.7-0.2,1.3-0.2,2c0,19,0,37.9,0,56.9
		c0,0.5,0,1,0,1.4c0.1,4.4,1.4,5.6,5.7,5.6c2.8,0,5.7,0,8.5,0c3.7,0,5.7-2.2,5.7-5.8C39.3,107.3,39.2,97.6,39.2,87.9z"/>
	<path d="M94.8,0C94.9,0.4,95,0.9,95,1.3c0,45.1,0,90.2,0,135.3c0,1.1-0.4,1.5-1.5,1.5c-5.3,0-10.6,0-16,0c-1.1,0-1.5-0.3-1.5-1.4
		c0-44.4,0-88.9,0-133.3c0-1.1,0-2.2,0-3.4C82.3,0,88.6,0,94.8,0z"/>
	<path d="M316.5,109.9c-6.2,0-12.4,0-18.6,0c-1.8,0-1.9,0.1-2.2,1.9c-0.7,3.8-1.5,7.7-2.3,11.5c-0.8,4.1-1.6,8.1-2.3,12.2
		c-0.2,1.4-0.4,3,1.2,3.8c0.5,0.3,1,0.5,1.6,0.5c4.9,0,9.8,0.1,14.7,0c1.9,0,3.6-1.9,4.1-4.1c0.7-3,1.2-5.9,1.8-8.9
		c0.2-0.8,0.5-1.2,1.3-1.2c5.5,0,11,0,16.4,0c0.8,0,1.2,0.4,1,1.2c-1.3,5.3-1.6,10.9-3.7,16c-2.6,6.1-7.1,10.2-13.7,11.6
		c-2.4,0.5-5,0.8-7.5,0.8c-7.7,0.1-15.4,0.1-23,0c-3.2,0-6.2-0.8-8.9-2.5c-3-1.9-4.4-4.8-4.9-8.1c-0.6-3.6,0.3-7.1,1-10.6
		c0.8-4.2,1.6-8.4,2.5-12.6c0.8-4,1.6-8.1,2.4-12.1c0.7-3.6,1.4-7.3,2.1-10.9c0.7-3.6,1.4-7.1,2.1-10.7c0.8-4.4,1.6-8.8,2.5-13.2
		c1-4.8,2-9.6,5.1-13.7c3.6-4.7,8.4-7.3,14.2-7.7c6.5-0.4,13-0.2,19.5-0.2c3.5,0,7-0.1,10.4,0.2c4.1,0.4,7.8,2,10.1,5.8
		c1,1.7,1.5,3.5,1.6,5.5c0.3,4.3-0.7,8.5-1.4,12.7c-0.8,4.2-1.6,8.3-2.4,12.5c-0.7,3.7-1.5,7.3-2.2,11c-0.5,2.4-0.9,4.9-1.3,7.3
		c-0.4,1.9-0.6,2.1-2.5,2.1C329,109.9,322.7,109.9,316.5,109.9C316.5,109.9,316.5,109.9,316.5,109.9z M310,96c3,0,6,0,9,0
		c2.1,0,2.2-0.1,2.6-2.2c1.3-7,2.6-14,4-21.1c0.6-2.9-0.3-4.5-3.2-4.7c-4.3-0.3-8.5-0.2-12.8-0.2c-1.2,0-2.6,0.4-3.7,0.9
		c-2.1,1.1-2.5,3.4-2.9,5.4c-1.4,6.7-2.6,13.5-3.9,20.2c-0.3,1.5-0.2,1.6,1.3,1.6C303.6,96,306.8,96,310,96z"/>
	<path d="M235.1,155.1c-2.7,0-5.4,0-8,0c-1.3,0-1.5-0.2-1.3-1.5c0.8-4.1,1.7-8.2,2.5-12.3c0.7-3.7,1.4-7.4,2.1-11.1
		c1-5.2,2.1-10.4,3.1-15.6c0.8-4,1.5-8,2.3-12c0.7-3.8,1.6-7.5,2.3-11.3c1-5.3,2-10.5,3-15.8c0.4-1.9,0.7-3.8,1.1-5.8
		c0.3-1.4,0.2-1.6-1.3-1.6c-2.3,0-4.6,0-7,0c-1.6,0-1.7-0.2-1.3-1.7c0.4-1.7,0.7-3.4,1-5c0.4-2.2,0.8-4.3,1.2-6.5
		c0.3-1.9,0.5-2.1,2.5-2.1c2.3,0,4.6,0,6.8,0c0.9,0,1.4-0.3,1.6-1.2c0.5-2.4,1-4.8,1.5-7.2c1-4.8,1.7-9.7,3-14.4
		c1.6-5.9,5-10.5,10.7-13.1c2.8-1.3,5.7-1.9,8.7-2c5.2-0.2,10.5-0.2,15.7-0.3c1.7,0,1.8,0.2,1.5,1.8c-0.8,4.4-1.8,8.8-2.6,13.2
		c-0.2,0.9-0.6,1.2-1.5,1.2c-2.2,0-4.4-0.1-6.6,0c-1.3,0-2.7,0.3-4,0.5c-2.5,0.4-3.6,2.2-4,4.4c-1.1,5.2-2.1,10.4-3.1,15.6
		c-0.3,1.3,0,1.6,1.4,1.6c3.9,0,7.8,0,11.6,0c1.5,0,1.7,0.3,1.4,1.7c-0.8,4.2-1.7,8.5-2.5,12.7c-0.2,0.9-0.8,1-1.5,1
		c-4,0-7.9,0-11.9,0c-1.8,0-1.8,0-2.2,1.7c-0.8,4.2-1.6,8.4-2.5,12.6c-1.1,5.4-2.2,10.7-3.2,16.1c-0.7,3.8-1.4,7.6-2.2,11.4
		c-0.7,3.7-1.5,7.4-2.3,11.1c-0.8,4.1-1.5,8.3-2.3,12.4c-1,5.3-2.1,10.5-3.2,15.7c-0.3,1.5-0.6,3.1-0.9,4.6c-0.1,1-0.6,1.3-1.6,1.3
		C240.5,155.1,237.8,155.1,235.1,155.1z"/>
	<path d="M133,55.3c-0.5-0.6-0.9-1.1-1.2-1.6c-1.5-2.8-3-5.5-4.6-8.3c-0.2-0.3-0.5-0.6-0.8-0.9c-0.1,0-0.2,0.1-0.3,0.1
		c0,0.4,0,0.9,0.1,1.3c0.7,3.4,1.4,6.7,2.2,10.1c0.8,3.4,1.6,6.8,2.3,10.2c0.8,3.8,1.6,7.6,2.3,11.4c0.2,0.9,0.3,1.7,0.3,2.6
		c0,11.9,0,23.8,0,35.8c0,0.9,0.1,1.8,0.2,2.6c0.2,2,1.5,3.2,3.5,3.3c1.5,0.1,3,0.2,4.5,0.2c1.1,0,1.6,0.5,1.8,1.6
		c0.8,4.2,1.7,8.5,2.5,12.7c0.3,1.4,0.1,1.7-1.3,1.7c-5.1,0-10.3,0.2-15.3-0.2c-5-0.4-9.5-2.4-12.3-7c-1.5-2.5-2.4-5.2-2.4-8.1
		c-0.1-22.7-0.2-45.3-0.3-68c0-1.9-0.1-2-2-2c-2,0-3.9,0-5.9,0c-1,0-1.5-0.3-1.5-1.3c0-4.2,0-8.5,0-12.7c0-0.9,0.5-1.2,1.4-1.2
		c2.1,0,4.2,0,6.2,0c1.6,0,1.8-0.2,1.8-1.8c0-4.5,0-9,0-13.6c0-1.7,0.3-2,1.9-2c5.1,0,10.2,0,15.2,0c1.7,0,2,0.3,2,2
		c0,4.5,0,9,0,13.6c0,1.5,0.2,1.7,1.8,1.7c3.5,0,7,0,10.4,0c1.4,0,1.6,0.2,1.6,1.6c0,4,0,7.9,0,11.9c0,1.6-0.2,1.8-1.8,1.8
		c-3.4,0-6.7,0-10.1,0c-1.7,0-1.7,0-1.9,1.8C133.3,54.7,133.2,54.9,133,55.3z"/>
	<path d="M195.1,155.1c-2.7,0-5.4,0-8,0c-1.4,0-1.5-0.3-1.2-1.6c0.8-3.9,1.5-7.8,2.3-11.6c0.7-3.8,1.5-7.6,2.2-11.4
		c0.7-3.8,1.5-7.5,2.2-11.3c0.7-3.8,1.5-7.7,2.2-11.5c0.8-4,1.6-8.1,2.4-12.1c0.8-3.8,1.6-7.6,2.3-11.4c1-5.3,2-10.5,3-15.8
		c0.8-4,1.6-8.1,2.4-12.1c0.1-0.6,0.2-1.3,0.3-1.9c0.1-1.1,0.7-1.6,1.8-1.6c2.8,0,5.7,0,8.5,0c2.5,0,5,0,7.6,0
		c1.4,0,1.6,0.3,1.3,1.7c-0.4,1.9-0.8,3.8-1.2,5.6c-1.1,5.7-2.3,11.4-3.4,17.1c-1,5.4-2,10.8-3.1,16.1c-0.8,3.9-1.6,7.8-2.4,11.7
		c-0.7,3.6-1.4,7.2-2,10.8c-0.8,4.1-1.6,8.2-2.4,12.2c-0.7,3.8-1.5,7.7-2.2,11.5c-0.9,4.7-1.8,9.3-2.7,14c-0.2,1-0.7,1.4-1.7,1.4
		C200.6,155.1,197.9,155.1,195.1,155.1z"/>
	<path d="M218.9,33.4c-2.8,0-5.6,0-8.4,0c-1.4,0-1.6-0.4-1.2-1.7c0.4-1.8,0.8-3.6,1.2-5.4c0.7-3.6,1.3-7.1,2-10.7
		c0.1-0.8,0.6-1.2,1.4-1.2c5.8,0,11.7,0,17.5,0c1,0,1.3,0.4,1.1,1.4c-1,5.1-2,10.3-3,15.4c-0.4,2-0.5,2.1-2.6,2.1
		C224.1,33.4,221.5,33.4,218.9,33.4z"/>
</g>
</svg>
